<svg width="206" height="92" viewBox="0 0 206 92" fill="none" xmlns="http://www.w3.org/2000/svg">
<rect width="56" height="8" rx="4" transform="matrix(-1 0 0 1 206 0)" fill="url(#paint0_linear_170_11001)"/>
<rect width="25" height="8" rx="4" transform="matrix(-1 0 0 1 130 0)" fill="url(#paint1_linear_170_11001)"/>
<rect width="38" height="8" rx="4" transform="matrix(-1 0 0 1 206 28)" fill="url(#paint2_linear_170_11001)"/>
<rect width="76" height="8" rx="4" transform="matrix(-1 0 0 1 148 28)" fill="url(#paint3_linear_170_11001)"/>
<rect width="52" height="8" rx="4" transform="matrix(-1 0 0 1 52 28)" fill="url(#paint4_linear_170_11001)"/>
<rect width="78" height="8" rx="4" transform="matrix(-1 0 0 1 206 56)" fill="url(#paint5_linear_170_11001)"/>
<rect width="48" height="8" rx="4" transform="matrix(-1 0 0 1 108 56)" fill="url(#paint6_linear_170_11001)"/>
<rect width="38" height="8" rx="4" transform="matrix(-1 0 0 1 206 84)" fill="url(#paint7_linear_170_11001)"/>
<defs>
<linearGradient id="paint0_linear_170_11001" x1="-5.21541e-08" y1="4" x2="56" y2="4" gradientUnits="userSpaceOnUse">
<stop stop-color="#661EFF"/>
<stop offset="1" stop-color="#A91EFF"/>
</linearGradient>
<linearGradient id="paint1_linear_170_11001" x1="-2.32831e-08" y1="4" x2="25" y2="4" gradientUnits="userSpaceOnUse">
<stop stop-color="#661EFF"/>
<stop offset="1" stop-color="#A91EFF"/>
</linearGradient>
<linearGradient id="paint2_linear_170_11001" x1="-3.53903e-08" y1="4" x2="38" y2="4" gradientUnits="userSpaceOnUse">
<stop stop-color="#661EFF"/>
<stop offset="1" stop-color="#A91EFF"/>
</linearGradient>
<linearGradient id="paint3_linear_170_11001" x1="-7.07805e-08" y1="4" x2="76" y2="4" gradientUnits="userSpaceOnUse">
<stop stop-color="#661EFF"/>
<stop offset="1" stop-color="#A91EFF"/>
</linearGradient>
<linearGradient id="paint4_linear_170_11001" x1="-4.84288e-08" y1="4" x2="52" y2="4" gradientUnits="userSpaceOnUse">
<stop stop-color="#661EFF"/>
<stop offset="1" stop-color="#A91EFF"/>
</linearGradient>
<linearGradient id="paint5_linear_170_11001" x1="-7.26432e-08" y1="4" x2="78" y2="4" gradientUnits="userSpaceOnUse">
<stop stop-color="#661EFF"/>
<stop offset="1" stop-color="#A91EFF"/>
</linearGradient>
<linearGradient id="paint6_linear_170_11001" x1="-4.47035e-08" y1="4" x2="48" y2="4" gradientUnits="userSpaceOnUse">
<stop stop-color="#661EFF"/>
<stop offset="1" stop-color="#A91EFF"/>
</linearGradient>
<linearGradient id="paint7_linear_170_11001" x1="-3.53903e-08" y1="4" x2="38" y2="4" gradientUnits="userSpaceOnUse">
<stop stop-color="#661EFF"/>
<stop offset="1" stop-color="#A91EFF"/>
</linearGradient>
</defs>
</svg>
